Cover 
 
http://desibbrg.org/images/96879865656773878691.jpg


Screen
 
http://desibbrg.org/images/11279888337794168395.png 
http://desibbrg.org/images/80033932045168136861.png 
http://desibbrg.org/images/16653569916269073369.png 
http://desibbrg.org/images/17579317256810083404.png


Info -

General

Format                           : AVI
Format/Info                      : Audio Video Interleave
File size                        : 698 MiB
Duration                         : 1h 40mn
Overall bit rate                 : 969 Kbps
Writing application              : VirtualDubMod 1.5.10.2 (build 2540/release)
Writing library                  : VirtualDubMod build 2540/release

Video
ID                               : 0
Format                           : MPEG-4 Visual
Format profile                   : Advanced Simple@L5
Format settings, BVOP            : Yes
Format settings, QPel            : No
Format settings, GMC             : No warppoints
Format settings, Matrix          : Default (MPEG)
Codec ID                         : XVID
Codec ID/Hint                    : XviD
Duration                         : 1h 40mn
Bit rate                         : 832 Kbps
Width                            : 656 pixels
Height                           : 256 pixels
Display aspect ratio             : 2.563
Frame rate                       : 23.976 fps
Color space                      : YUV
Chroma subsampling               : 4:2:0
Bit depth                        : 8 bits
Scan type                        : Progressive
Bits/(Pixel*Frame)               : 0.207
Stream size                      : 599 MiB (86%)
Writing library                  : XviD 1.2.1 (UTC 2008-12-04)

Audio
ID                               : 1
Format                           : MPEG Audio
Format version                   : Version 1
Format profile                   : Layer 3
Mode                             : Joint stereo
Mode extension                   : MS Stereo
Codec ID                         : 55
Codec ID/Hint                    : MP3
Duration                         : 1h 40mn
Bit rate mode                    : Constant
Bit rate                         : 128 Kbps
Channel(s)                       : 2 channels
Sampling rate                    : 48.0 KHz
Stream size                      : 92.1 MiB (13%)
Alignment                        : Aligned on interleaves
Interleave, duration             : 42 ms (1.00 video frame)
Interleave, preload duration     : 504 ms
Writing library                  : LAME3.99r
Encoding settings                : -m j -V 4 -q 2 -lowpass 17 -b 128


 
http://www.imdb.com/title/tt2064816/

I, Me Aur Main Cast & Crew:

    Banner
    Reliance Entertainment
    Rose Movies
    Pollen Entertainment

    Status
    Released

    Release Date
    1 Mar 2013

    Genre
    Romance

    Producer
    Goldie Behl
    Shrishti Arya
    John Abraham

    Star Cast
    John Abraham.... Ishaan
    Chitrangda Singh.... Anushka
    Prachi Desai.... Gauri
    Zarina Wahab.... Ishaan's Mother
    Mini Mathur.... Shivani
    Raima Sen.... Beena
    Sameer Soni

    Story / Writers
    Devika Bhagat

    Choreographers
    Ahmed Khan

    Costume Designers
    Priyanka Mundada

    Censor Details:

    Censor Dates
    21 Feb 2013

    Reels
    Not Available.

    Length in metres
    0.0

Music Director

    Sachin
    Jigar
    Raghav Sachar
    Gourav Dasgupta
    Falak Shabir

Color
C
Language
Hindi
Director

    Kapil Sharma 1

Singers

    Shaan
    Neeraj Shridhar
    Anushka Manchanda
    Falak Shabir
    Abhishek Nailwal
    Monali Thakur
    Neha Bhasin

Lyricist

    Mayur Puri
    Kumaar
    Manthan
    Neelesh Misra
    Prashant Ingole
    Kausar Munir

Editor

    Ranjeet Bahadur

Cinematography

    Himman Dhamija

    Shooting Location(City & Country)
    India

    Sound
    Tarun Bhandari

    Music Company
    T-Series
